Fly_normalized_Motion_pl05
version=1
nRows=8
nColumns=43
inDegrees=yes
endheader
time		pelvis_tilt		pelvis_list		pelvis_rotation		pelvis_tx		pelvis_ty		pelvis_tz		hip_flexion_r		hip_adduction_r		hip_rotation_r		knee_angle_r		ankle_angle_r		subtalar_angle_r		mtp_angle_r		hip_flexion_l		hip_adduction_l		hip_rotation_l		knee_angle_l		ankle_angle_l		subtalar_angle_l		mtp_angle_l		lumbar_extension		lumbar_bending		lumbar_rotation		neck_flexion		neck_lateral_bending		neck_rotation		arm_flex_r		arm_add_r		arm_rot_r		elbow_flex_r		pro_sup_r		wrist_flex_r		wrist_dev_r		hand_finger_flex_r		arm_flex_l		arm_add_l		arm_rot_l		elbow_flex_l		pro_sup_l		wrist_flex_l		wrist_dev_l		hand_finger_flex_l		
3.309242		3.301651		-0.150986		97.438731		-0.031174		1.277214		0.714055		25.131871		-4.953682		-24.971175		-17.858395		-28.448219		2.705995		18.514377		21.073373		-3.529044		-10.806770		-15.550346		-28.818401		0.423033		22.274477		-29.142749		7.225673		8.093172		-23.910162		10.659779		-10.954008		-44.417591		-13.695949		-24.184540		56.188150		121.698147		-3.046984		-1.344419		-28.219378		-96.152472		-31.019565		-39.285938		70.292701		145.483369		-8.306775		-12.933964		-15.824437		
3.313232		3.333403		-0.129798		97.451087		-0.031487		1.264872		0.706118		24.930556		-4.890825		-25.039242		-17.225940		-28.653010		2.743895		18.408556		20.969007		-3.517902		-10.648434		-14.843708		-29.023784		0.198281		22.313836		-28.732612		7.251019		8.064412		-24.964689		10.376555		-11.017392		-45.785007		-13.051782		-24.251299		56.194043		122.004692		-3.295338		-1.933377		-28.008132		-97.179458		-29.577412		-39.666436		70.056091		146.112971		-8.127859		-13.287577		-15.810877		
3.317222		3.335912		-0.118536		97.451533		-0.031679		1.252261		0.698594		24.801387		-4.854121		-24.995275		-16.665064		-28.676655		2.772790		18.376961		20.940105		-3.496871		-10.568247		-14.242329		-29.047575		0.159354		22.326464		-28.445952		7.227998		8.065842		-25.263851		10.299225		-11.072469		-47.128062		-12.418621		-24.296673		56.376331		122.057255		-3.432845		-2.273220		-27.969900		-98.074397		-28.344782		-39.756347		69.720079		146.226644		-8.083781		-13.384737		-15.818689		
3.321212		3.354441		-0.070649		97.479955		-0.031948		1.239773		0.690580		24.599261		-4.809778		-24.872255		-16.163240		-28.964842		2.779032		18.287564		20.825102		-3.489871		-10.431118		-13.637515		-29.405708		-0.000900		22.368540		-28.058931		7.252262		8.024821		-26.550335		10.017892		-11.098598		-48.280754		-11.775702		-24.403729		56.163612		122.445746		-3.678693		-2.791449		-27.812096		-98.805729		-26.999756		-40.095260		69.344418		146.822091		-7.963560		-13.742812		-15.787333		
3.325202		3.342892		-0.020564		97.502841		-0.032418		1.227015		0.683049		24.450554		-4.831989		-24.713407		-15.752081		-28.999861		2.793742		18.252837		20.800919		-3.451855		-10.288611		-13.196339		-29.510704		0.009392		22.387638		-27.816360		7.260977		8.037456		-26.951801		9.957188		-11.135165		-49.456706		-11.146910		-24.556467		56.179076		122.552350		-3.838932		-3.054782		-27.768847		-99.381141		-25.793272		-40.213302		68.954473		146.932503		-7.934562		-13.810496		-15.795009		
3.329192		3.322755		0.095725		97.564257		-0.032833		1.214370		0.675316		24.271108		-4.881460		-24.495119		-15.541426		-29.095403		2.777240		18.207376		20.761132		-3.423243		-10.080368		-12.927129		-29.731014		0.020686		22.415165		-27.617326		7.278956		8.064057		-27.601027		9.787622		-11.148902		-50.407065		-10.538423		-24.686242		55.872409		122.796676		-3.960252		-3.245555		-27.688577		-99.824289		-24.759582		-40.321031		68.471379		147.164416		-7.878051		-13.926695		-15.786201		
3.333182		3.262538		0.199392		97.557148		-0.032955		1.201557		0.667909		24.103078		-4.919343		-24.218723		-15.274330		-29.111525		2.760074		18.176830		20.762084		-3.391891		-9.732555		-12.711851		-29.906545		0.104218		22.437598		-27.473500		7.212408		8.018783		-28.122020		9.669030		-11.219392		-51.314949		-9.843887		-25.001935		55.796846		122.871243		-4.145482		-3.443781		-27.645494		-100.082365		-23.576922		-40.454191		67.941224		147.160615		-7.853493		-13.921709		-15.780428		
3.337172		3.199362		0.350363		97.626471		-0.033253		1.188774		0.660432		23.927893		-5.004628		-23.845173		-15.175702		-29.158637		2.677834		18.134647		20.773713		-3.344515		-9.291669		-12.641787		-30.094978		0.150257		22.474057		-27.369342		7.195487		7.951471		-28.736143		9.396917		-11.259279		-52.045779		-9.195787		-25.319956		55.495665		123.062283		-4.284851		-3.570652		-27.543847		-100.188072		-22.543488		-40.572394		67.309991		147.177429		-7.787597		-13.974862		-15.733384		
